PathFileType	4	(X/Y/Z)	/Users/niels/Desktop/University/Third Semester/Perception and Action/Exam/Gymnastics Motion Tracking/Code for Gym Tracking/Analyzed Data/Start Salto/stsalto_bad_id11_1_Sports2D/stsalto_bad_id11_1_Sports2D_px_person00.trc
DataRate	CameraRate	NumFrames	NumMarkers	Units	OrigDataRate	OrigDataStartFrame	OrigNumFrames
29.850746268656717	29.850746268656717	7	22	m	29.850746268656717	100	201
Frame#	Time	Hip			RHip			RKnee			RAnkle			RBigToe			RSmallToe			RHeel			LHip			LKnee			LAnkle			LBigToe			LSmallToe			LHeel			Neck			Head			Nose			RShoulder			RElbow			RWrist			LShoulder			LElbow			LWrist		
		X1	Y1	Z1	X2	Y2	Z2	X3	Y3	Z3	X4	Y4	Z4	X5	Y5	Z5	X6	Y6	Z6	X7	Y7	Z7	X8	Y8	Z8	X9	Y9	Z9	X10	Y10	Z10	X11	Y11	Z11	X12	Y12	Z12	X13	Y13	Z13	X14	Y14	Z14	X15	Y15	Z15	X16	Y16	Z16	X17	Y17	Z17	X18	Y18	Z18	X19	Y19	Z19	X20	Y20	Z20	X21	Y21	Z21	X22	Y22	Z22
100	3.35	0.8658324866123135	-0.3555711514267481	0.0	0.857724196822164	-0.3516980219541362	0.0	0.7918976902938524	-0.47177098019992275	0.0	0.7012421041821225	-0.37167604391720055	0.0	0.6404263763039638	-0.4005360716684586	0.0	0.6556614399988857	-0.3880319319538311	0.0	0.6913887652419677	-0.3582060861314673	0.0	0.8694766300110522	-0.3734554422344992	0.0	0.7976070478778753	-0.486304319513	0.0	0.6814867437468162	-0.44615476298476175	0.0	0.6273258743928184	-0.46558459718239376	0.0	0.6300639788168774	-0.4789194413401775	0.0	0.6720800725292929	-0.43547318613792174	0.0	0.9100837830172377	-0.5102175849888789	0.0	0.8867948439200886	-0.5895084169121532	0.0	0.8651800894377362	-0.5446563887350987	0.0	0.9253489822452847	-0.48767594829032046	0.0	0.8292441065062566	-0.49525706429724575	0.0	0.8147758528023245	-0.5745117408015079	0.0	0.9126820619746256	-0.5027017081318643	0.0	0.8279960635185801	-0.506801405892944	0.0	0.817953615057156	-0.5741032772248946	0.0
101	3.3835	0.8763487854624574	-0.3554373302518075	0.0	0.8677392765125638	-0.3515485884617268	0.0	0.7960870796534765	-0.469694669939299	0.0	0.7114683424123789	-0.36391279706944507	0.0	0.6497802200237018	-0.39079140392255807	0.0	0.6643633625007728	-0.3789932659589106	0.0	0.7015155754942146	-0.3515753407305875	0.0	0.8788219791445784	-0.37341539807313284	0.0	0.801806697274768	-0.48319741799210436	0.0	0.6885135621722708	-0.4401136577261741	0.0	0.6323403239668931	-0.45759530723408237	0.0	0.6356084205977905	-0.47276192695693986	0.0	0.6789458262256087	-0.4287331059754812	0.0	0.9135969862233819	-0.5147459747323585	0.0	0.884198286417892	-0.58910509808546	0.0	0.8670712977133863	-0.5458070618196904	0.0	0.928639413597329	-0.4925395976986913	0.0	0.8321102157922754	-0.4950536037034951	0.0	0.8148654724995523	-0.5743608508110489	0.0	0.9172848227234867	-0.5066017514406057	0.0	0.8318348817049286	-0.5058864077006299	0.0	0.8194524965875041	-0.5706429092430263	0.0
102	3.4170000000000003	0.8871623308506718	-0.35571905839268664	0.0	0.8781091730912131	-0.35174966673205055	0.0	0.8004494319598747	-0.46779327870500964	0.0	0.722128993264888	-0.35660098328616174	0.0	0.6595192973468648	-0.3814348740313331	0.0	0.6728220494812353	-0.3708202000287052	0.0	0.7127511868110007	-0.34562442043529945	0.0	0.8880170403402674	-0.37340329427121	0.0	0.8060575445507849	-0.4802838955054037	0.0	0.6955426925299828	-0.43415311047729277	0.0	0.6376051024571772	-0.45153415876263	0.0	0.6412279552230475	-0.4667900137114013	0.0	0.6856305632634458	-0.42229361282927724	0.0	0.917015557527778	-0.5198285337481708	0.0	0.8819148791776911	-0.5876521627955189	0.0	0.8691804070460607	-0.5473257217801341	0.0	0.9318066775501805	-0.49808180430810073	0.0	0.8346982008653617	-0.4949757884756173	0.0	0.8150515137645732	-0.5746173310454561	0.0	0.9212085927132158	-0.5106525348079914	0.0	0.8348951567563399	-0.5041979971159609	0.0	0.8204995506017715	-0.5666384649761046	0.0
103	3.4505000000000003	0.8982002032125325	-0.35659223763241793	0.0	0.889020852651665	-0.35243401652748796	0.0	0.8051605749533303	-0.465498396144582	0.0	0.7334052247765491	-0.3496358464645862	0.0	0.6696659669491943	-0.37224549899985027	0.0	0.6815625807271731	-0.36297575982295754	0.0	0.725385339102259	-0.33968028608859896	0.0	0.8971022537143394	-0.3739034131817363	0.0	0.8105732996404335	-0.47765131061919885	0.0	0.7024009423682918	-0.428273208962668	0.0	0.6435340440376077	-0.44688546809785706	0.0	0.6472989155262494	-0.46056119641115806	0.0	0.6920659194974272	-0.41602463590273225	0.0	0.9199634443815424	-0.5250858633492295	0.0	0.8796353099912244	-0.5855114188830527	0.0	0.8710702998325937	-0.5489079691777192	0.0	0.9350636085483707	-0.5040490866775096	0.0	0.8371128767402178	-0.4946059447141566	0.0	0.8155594681910867	-0.5742537427974035	0.0	0.9238969942208366	-0.5145851639520487	0.0	0.8370433465051342	-0.5017559078577168	0.0	0.8207531001690139	-0.5622588463176906	0.0
104	3.484	0.9094268805555399	-0.3580851334123527	0.0	0.9005560647339516	-0.35372071872737587	0.0	0.8104205020958569	-0.4624146031040594	0.0	0.7455610128157173	-0.34291633628332996	0.0	0.6804632724294472	-0.3631463526958388	0.0	0.6911616694123172	-0.35506341424445	0.0	0.7395461817834387	-0.3332793999681166	0.0	0.9062197904863558	-0.3750354630361998	0.0	0.8153545915561266	-0.4750743483774682	0.0	0.7092169979184701	-0.4224048880140875	0.0	0.6505025316038738	-0.442390357292425	0.0	0.6542506367398087	-0.45325692006877766	0.0	0.6985300645730438	-0.4098128358389889	0.0	0.9221099119177962	-0.5301645456550516	0.0	0.8768066240743732	-0.5830006072833048	0.0	0.872193749607586	-0.5501414694042052	0.0	0.938328680990414	-0.5101649167242033	0.0	0.8395679020321772	-0.49369015198357374	0.0	0.8164170003887613	-0.572750824689253	0.0	0.9249118218861699	-0.5180897218204331	0.0	0.8385064931032716	-0.4986128143840253	0.0	0.8202864931424544	-0.5578727004107803	0.0
105	3.5175	0.9209074847386183	-0.3600935987401839	0.0	0.912655952689046	-0.35567906450388825	0.0	0.8162262653074387	-0.4585271643659779	0.0	0.7588298373378797	-0.3364053658550057	0.0	0.6923862713418738	-0.35433302193104654	0.0	0.7021262093575068	-0.3471236613904834	0.0	0.7551495733613783	-0.3263284707979433	0.0	0.9155913481133905	-0.37655206070662833	0.0	0.8202636488500095	-0.47224726496860775	0.0	0.7163571388598834	-0.41642186825869293	0.0	0.6584935394480431	-0.436881347600704	0.0	0.6621937775783225	-0.44401003931957717	0.0	0.7055235839817701	-0.40368001485227023	0.0	0.9233712702893954	-0.5348502088363605	0.0	0.8728167640260257	-0.5803255513740142	0.0	0.8720843858373449	-0.5507536021175883	0.0	0.9414180765623283	-0.5161140506485224	0.0	0.8423366034329123	-0.4922061036621073	0.0	0.8174450812923862	-0.5701351042877278	0.0	0.9242345756331615	-0.521039005852857	0.0	0.8397345932817626	-0.4948699045718434	0.0	0.8197432602251326	-0.5537528176262494	0.0
106	3.551	0.9325972363760744	-0.3625502673262289	0.0	0.9250181995598187	-0.3583304691047677	0.0	0.8223060833285281	-0.45413181587054363	0.0	0.7731802619303549	-0.33020897615795325	0.0	0.7058282904053714	-0.34623757167152425	0.0	0.7147493338646432	-0.33964800463579337	0.0	0.7717737706079677	-0.31909971051969643	0.0	0.9253078177031077	-0.3782726540300236	0.0	0.8251223789162839	-0.4690576925288423	0.0	0.7241063525213814	-0.41029397156160075	0.0	0.6670948186253682	-0.42981360906676735	0.0	0.670856551657021	-0.43232426648807043	0.0	0.713373309789731	-0.3978188925729749	0.0	0.9239783257203487	-0.5389431174049998	0.0	0.867421943151725	-0.5775447450821877	0.0	0.870632366926804	-0.5505531088271328	0.0	0.9441959731751426	-0.5215141778044396	0.0	0.8456089276309523	-0.49026176086399004	0.0	0.8184122696843013	-0.5667380657753356	0.0	0.9224592283998633	-0.5234824742590223	0.0	0.8412212463029639	-0.4907404894784997	0.0	0.8200274236328674	-0.5498840907751767	0.0
